<?xml version="1.0" standalone="no"?>
<!DOCTYPE svg PUBLIC "-//W3C//DTD SVG 20010904//EN"
 "http://www.w3.org/TR/2001/REC-SVG-20010904/DTD/svg10.dtd">
<svg version="1.0" xmlns="http://www.w3.org/2000/svg"
 width="1150.000000pt" height="1150.000000pt" viewBox="0 0 1150.000000 1150.000000"
 preserveAspectRatio="xMidYMid meet">
<metadata>
Created by potrace 1.11, written by Peter Selinger 2001-2013
</metadata>
<g transform="translate(0.000000,1150.000000) scale(0.100000,-0.100000)"
fill="#000000" stroke="none">
<path d="M3985 11485 c-42 -19 -75 -50 -128 -121 -101 -135 -198 -310 -288
-525 -67 -160 -195 -545 -208 -629 -14 -83 -14 -301 -1 -371 14 -74 86 -212
234 -448 69 -110 141 -231 160 -269 42 -84 84 -128 137 -143 35 -11 43 -10 65
7 32 24 582 1233 609 1339 12 43 19 108 19 170 0 96 -2 106 -48 230 -107 286
-193 463 -313 643 -74 110 -101 132 -161 132 -26 -1 -60 -7 -77 -15z"/>
<path d="M920 10592 c-19 -19 -31 -46 -39 -83 -6 -30 -24 -260 -41 -512 -33
-498 -33 -520 15 -625 14 -31 42 -76 63 -101 84 -104 546 -593 585 -620 48
-33 125 -61 165 -61 50 0 130 48 157 94 30 52 32 64 50 403 20 373 20 440 -6
515 -81 242 -377 627 -694 903 -136 118 -201 140 -255 87z"/>
<path d="M4626 9477 c-33 -35 -91 -147 -263 -504 -124 -255 -229 -485 -237
-518 -54 -218 -46 -478 25 -829 54 -269 154 -643 188 -701 23 -40 65 -63 88
-50 23 14 425 809 453 895 47 145 50 187 30 400 -11 107 -31 332 -45 500 -43
505 -80 754 -119 813 -34 50 -69 48 -120 -6z"/>
<path d="M2261 8885 c-61 -78 -100 -526 -57 -650 30 -85 161 -345 229 -452 64
-100 65 -102 56 -149 -5 -26 -18 -108 -29 -182 -11 -74 -22 -137 -24 -139 -3
-3 -32 12 -66 32 -33 20 -78 39 -99 42 -90 12 -120 -46 -121 -230 0 -365 105
-781 269 -1057 33 -55 39 -73 35 -102 -13 -76 33 -435 86 -681 30 -140 101
-273 207 -391 l86 -95 1 -84 c1 -79 4 -90 46 -173 25 -49 70 -123 101 -164 59
-80 245 -300 263 -312 21 -14 63 -8 89 12 l26 21 103 -153 c113 -167 140 -190
178 -152 30 30 39 110 42 389 2 232 0 255 -19 313 -21 63 -311 611 -341 645
-23 26 -50 21 -69 -15 -14 -27 -18 -70 -23 -247 l-5 -214 -72 94 -71 94 -4
182 -3 182 26 -6 c17 -3 32 1 44 13 20 20 20 14 -15 549 -11 160 -22 358 -25
440 -7 149 -6 151 35 335 51 233 90 383 191 735 146 509 159 561 159 653 0 99
-22 217 -55 289 -13 29 -108 163 -211 298 -171 224 -189 245 -217 245 -67 0
-150 -87 -226 -237 -23 -46 -43 -83 -44 -83 -2 0 -46 48 -97 108 -52 59 -141
155 -199 215 -116 118 -142 130 -180 82z"/>
<path d="M936 8465 c-48 -17 -89 -55 -111 -106 -17 -37 -18 -62 -7 -397 9
-311 13 -367 32 -437 35 -132 79 -255 124 -350 37 -79 55 -101 137 -180 117
-112 209 -181 464 -346 110 -71 218 -143 240 -159 22 -17 55 -34 73 -39 27 -8
36 -6 59 13 36 31 38 78 19 401 -14 251 -16 266 -61 442 -56 223 -121 415
-185 549 -55 115 -134 207 -285 333 -128 107 -376 267 -440 284 -11 3 -37 0
-59 -8z"/>
<path d="M3694 7311 c-59 -36 -100 -119 -175 -351 -95 -297 -217 -830 -226
-985 -10 -182 2 -230 149 -583 72 -172 142 -330 156 -351 30 -46 74 -75 102
-66 32 10 48 43 85 181 273 993 272 989 260 1144 -8 95 -59 303 -176 715 -93
326 -102 341 -175 296z"/>
<path d="M4974 7001 c-23 -14 -64 -79 -166 -262 -216 -388 -237 -431 -247
-523 -11 -89 0 -222 25 -331 12 -50 51 -136 139 -305 205 -390 241 -453 269
-475 37 -27 105 -27 143 1 34 25 313 418 350 494 21 45 26 69 27 135 1 80 0
81 -100 315 -147 340 -237 591 -304 848 -31 115 -69 144 -136 103z"/>
<path d="M1428 6293 c-39 -43 -17 -125 87 -327 198 -385 477 -756 714 -950 83
-68 123 -86 212 -93 92 -8 119 9 119 72 0 71 -175 494 -301 727 -122 224 -267
395 -404 476 -94 55 -240 103 -335 109 -66 5 -77 3 -92 -14z"/>
<path d="M4243 5525 c-39 -17 -63 -51 -114 -166 -87 -198 -179 -479 -205 -634
-18 -99 -14 -204 10 -271 16 -46 356 -521 410 -573 27 -27 45 -35 84 -39 43
-4 53 -1 83 26 43 37 47 46 104 205 25 71 80 202 121 293 81 181 97 249 74
320 -7 21 -70 121 -140 221 -142 202 -199 298 -290 484 -67 139 -84 156 -137
134z"/>
<path d="M5938 5380 c-48 -14 -82 -46 -165 -152 -178 -228 -243 -341 -243
-426 0 -80 20 -116 87 -158 80 -52 267 -148 473 -245 96 -45 227 -106 290
-136 87 -42 130 -56 176 -60 108 -9 113 -6 333 241 109 122 203 231 209 243
20 37 15 99 -10 127 -13 14 -124 78 -248 144 -124 66 -279 148 -345 183 -66
35 -156 83 -200 106 -260 141 -292 153 -357 133z"/>
<path d="M2179 4777 c-35 -27 -37 -48 -22 -172 9 -74 16 -235 18 -420 3 -366
1 -356 135 -490 50 -49 90 -98 90 -108 0 -10 6 -32 14 -50 16 -38 188 -223
216 -232 22 -7 54 8 91 42 l26 24 66 -48 c45 -33 64 -53 61 -63 -14 -36 -15
-88 -2 -125 9 -28 34 -58 93 -108 99 -86 131 -101 185 -87 34 9 49 24 116 116
94 129 155 235 194 336 55 141 40 195 -108 391 -71 94 -115 143 -129 145 -12
2 -51 36 -88 77 -36 41 -74 77 -84 80 -13 4 -20 18 -23 49 -10 86 -51 152
-171 274 -125 128 -162 151 -206 129 -27 -13 -30 -12 -112 60 -46 41 -124 101
-172 134 -73 49 -95 59 -130 59 -23 0 -49 -6 -58 -13z"/>
<path d="M7704 4566 c-67 -21 -123 -66 -272 -221 -162 -167 -202 -222 -202
-274 0 -42 29 -108 56 -133 45 -39 269 -121 589 -214 105 -31 258 -78 340
-106 125 -42 166 -51 247 -55 118 -7 121 -5 276 142 166 158 269 277 282 326
14 51 1 108 -32 139 -11 10 -89 49 -171 85 -277 123 -497 197 -826 279 -194
49 -222 52 -287 32z"/>
<path d="M904 4480 c-78 -39 -106 -143 -68 -254 14 -42 43 -73 241 -256 131
-122 244 -218 270 -231 57 -27 158 -24 200 7 54 40 68 70 68 142 -1 111 -25
144 -275 375 -118 110 -233 207 -255 218 -53 25 -129 24 -181 -1z"/>
<path d="M5225 4337 c-69 -33 -85 -54 -150 -192 -150 -320 -185 -403 -185
-446 0 -56 33 -123 74 -148 18 -11 203 -82 412 -158 372 -134 381 -137 464
-137 145 -1 150 2 306 241 166 253 168 255 168 325 1 50 -3 61 -29 89 -16 17
-66 49 -110 69 -605 281 -814 374 -855 377 -33 3 -58 -3 -95 -20z"/>
<path d="M3891 4001 c-22 -22 -22 -22 -56 -234 -28 -179 -32 -282 -10 -333 15
-37 281 -330 318 -351 33 -19 107 -16 144 6 17 11 67 71 112 137 122 176 116
202 -98 419 -76 77 -175 188 -220 248 -46 59 -91 112 -101 117 -29 16 -68 12
-89 -9z"/>
<path d="M9623 3851 c-65 -30 -495 -406 -509 -444 -12 -34 -4 -85 19 -120 9
-14 66 -46 143 -81 175 -79 447 -220 573 -296 57 -35 125 -71 152 -81 65 -25
213 -44 274 -35 47 7 57 15 184 139 73 73 155 158 182 190 46 54 49 62 49 113
0 30 -7 68 -15 84 -27 52 -317 257 -531 375 -283 155 -429 199 -521 156z"/>
<path d="M6855 3702 c-55 -26 -92 -70 -228 -273 -126 -187 -141 -223 -118
-292 12 -34 30 -60 61 -84 9 -6 213 -62 455 -123 633 -161 593 -168 947 177
132 129 159 175 139 236 -23 69 -23 69 -588 224 -290 79 -550 146 -578 149
-36 3 -61 0 -90 -14z"/>
<path d="M1819 3627 c-21 -14 -41 -41 -53 -70 -18 -42 -19 -54 -8 -103 6 -31
19 -72 29 -91 26 -50 3644 -3320 3702 -3346 57 -25 158 -21 198 9 46 34 75
100 69 158 -14 124 111 5 -1882 1794 -1004 900 -1841 1645 -1862 1654 -56 26
-150 24 -193 -5z"/>
<path d="M3645 3283 c-38 -9 -46 -20 -282 -366 -79 -116 -77 -130 37 -256 149
-164 164 -162 412 41 95 77 179 148 186 156 16 21 15 65 -2 105 -13 31 -230
279 -264 303 -22 15 -62 22 -87 17z"/>
<path d="M4838 3238 c-27 -13 -225 -229 -259 -283 -28 -45 -25 -96 9 -127 71
-67 256 -167 492 -265 214 -90 230 -95 293 -82 74 16 110 37 254 145 164 123
183 143 183 193 0 65 -22 81 -227 166 -104 43 -285 118 -403 167 -224 93 -290
110 -342 86z"/>
<path d="M8708 3124 c-84 -20 -116 -39 -298 -178 -181 -139 -207 -170 -195
-234 14 -75 56 -100 445 -266 l355 -151 105 0 c136 1 158 11 342 157 78 63
165 125 193 139 62 31 91 75 74 112 -26 58 -560 326 -827 416 -70 24 -113 25
-194 5z"/>
<path d="M4195 2716 c-104 -34 -216 -113 -296 -209 -44 -52 -49 -64 -49 -106
0 -27 5 -62 11 -80 15 -42 380 -363 434 -381 47 -16 131 -8 177 17 66 35 417
298 432 325 9 14 16 44 16 66 0 51 -24 79 -105 125 -33 19 -143 83 -245 143
l-185 108 -75 3 c-43 1 -92 -3 -115 -11z"/>
<path d="M6325 2692 c-59 -21 -527 -323 -555 -360 -26 -33 -25 -64 3 -90 54
-51 585 -281 699 -302 28 -6 92 -10 143 -10 200 0 280 35 573 248 150 109 178
142 167 192 -13 61 -37 76 -198 129 -268 88 -715 211 -761 211 -11 -1 -43 -8
-71 -18z"/>
<path d="M7876 2195 c-21 -7 -61 -28 -90 -46 -232 -146 -351 -207 -609 -309
-189 -75 -216 -101 -167 -162 29 -37 636 -304 710 -313 126 -15 395 32 567 98
163 63 478 233 510 276 20 27 16 94 -10 132 -20 31 -53 46 -402 186 -404 163
-425 168 -509 138z"/>
<path d="M5214 2141 c-40 -11 -94 -31 -120 -44 -72 -37 -215 -134 -329 -224
-134 -105 -153 -155 -93 -243 26 -38 426 -355 475 -376 84 -36 156 -9 251 96
89 96 222 188 378 260 167 77 170 79 193 120 23 42 26 71 11 101 -16 28 -599
318 -653 324 -25 3 -71 -3 -113 -14z"/>
<path d="M6274 1545 c-86 -19 -236 -83 -348 -149 -173 -102 -393 -282 -412
-338 -13 -36 -2 -89 25 -125 20 -28 415 -330 458 -351 53 -25 94 -6 198 94
162 155 374 279 665 389 69 26 131 52 138 57 19 16 14 72 -10 109 -19 28 -71
58 -304 176 -154 78 -296 144 -315 147 -19 3 -62 -1 -95 -9z"/>
</g>
</svg>
